# xmcd
# 
# Track frame offsets:
#     150
#     18105
#     29362
#     47947
#     66070
#     78287
#     95402
#     112430
#     125402
#     140652
#     157690
#     174032
#     190300
#     209347
#     224682
#     240447
#     265647
#     280347
# 
# Disc length: 4027
# 
# Revision: 2
# Processed by: cddbd v1.5.2PL0 Copyright (c) Steve Scherf et al.
# Submitted via: fre:ac v1.0.31
# 
DISCID=fc0fb912
DTITLE=Time Music - Harmonica Greats
DYEAR=0
DGENRE=
TTITLE0=Blues for Monica
TTITLE1=Charade
TTITLE2=The greatest love of all
TTITLE3=I can see clearly now
TTITLE4=La vie en rose
TTITLE5=Love story
TTITLE6=A man and a woman
TTITLE7=Misty
TTITLE8=Moon river
TTITLE9=Never been in love this way before
TTITLE10=Reunited
TTITLE11=Smoke gets in your eyes
TTITLE12=The summer knows (Summer of '42)
TTITLE13=Summertime
TTITLE14=We've only just begun
TTITLE15=A woman in love
TTITLE16=Yesterday's love
TTITLE17=You've got a friend
EXTD=
EXTT0=
EXTT1=
EXTT2=
EXTT3=
EXTT4=
EXTT5=
EXTT6=
EXTT7=
EXTT8=
EXTT9=
EXTT10=
EXTT11=
EXTT12=
EXTT13=
EXTT14=
EXTT15=
EXTT16=
EXTT17=
PLAYORDER=
